<svg width="24" height="24" viewBox="0 0 24 24" fill="none" xmlns="http://www.w3.org/2000/svg">
<path d="M22.5001 12V18C22.5001 18.1989 22.421 18.3897 22.2804 18.5303C22.1397 18.671 21.949 18.75 21.7501 18.75H15.7501C15.6016 18.7501 15.4565 18.7062 15.3331 18.6238C15.2096 18.5414 15.1134 18.4242 15.0566 18.2871C14.9998 18.15 14.9849 17.9991 15.0139 17.8535C15.0429 17.708 15.1144 17.5743 15.2194 17.4694L17.6897 15L12.7501 10.0603L9.53068 13.2806C9.46102 13.3504 9.3783 13.4057 9.28726 13.4434C9.19621 13.4812 9.09861 13.5006 9.00005 13.5006C8.90149 13.5006 8.80389 13.4812 8.71285 13.4434C8.6218 13.4057 8.53908 13.3504 8.46943 13.2806L1.71943 6.53063C1.5787 6.3899 1.49963 6.19903 1.49963 6.00001C1.49963 5.80098 1.5787 5.61011 1.71943 5.46938C1.86016 5.32865 2.05103 5.24959 2.25005 5.24959C2.44907 5.24959 2.63995 5.32865 2.78068 5.46938L9.00005 11.6897L12.2194 8.46938C12.2891 8.39965 12.3718 8.34433 12.4628 8.30659C12.5539 8.26884 12.6515 8.24942 12.7501 8.24942C12.8486 8.24942 12.9462 8.26884 13.0373 8.30659C13.1283 8.34433 13.211 8.39965 13.2807 8.46938L18.7501 13.9397L21.2194 11.4694C21.3243 11.3644 21.458 11.2928 21.6036 11.2639C21.7491 11.2349 21.9 11.2497 22.0371 11.3065C22.1743 11.3634 22.2914 11.4596 22.3738 11.583C22.4562 11.7065 22.5002 11.8516 22.5001 12Z" fill="#3A3F55"/>
</svg>
